<svg width="242" height="42" viewBox="0 0 242 42" fill="none" xmlns="http://www.w3.org/2000/svg">
<g clip-path="url(#clip0_19930_9728)">
<path d="M11.25 3.51025C12.6732 3.51025 14.0407 3.72594 15.3555 4.15771H15.3564C17.3586 4.78002 18.9804 5.7903 20.1914 7.20557H20.1924C21.3983 8.61073 22.0205 10.1929 22.0205 11.9478C22.0205 12.0873 21.9852 12.2838 21.8271 12.4419C21.6691 12.5998 21.4725 12.6353 21.333 12.6353H20.1875C20.0661 12.6353 19.8991 12.6121 19.7412 12.4937L19.6406 12.4175L19.5879 12.3032C19.5233 12.1633 19.5 12.0278 19.5 11.9058V11.8657L19.5068 11.8247C19.6199 11.1368 19.5887 10.3952 19.4082 9.6001L19.4062 9.59326C19.2465 8.84009 18.8409 8.09027 18.1543 7.3501L18.1514 7.34814C17.5072 6.64379 16.4459 6.01189 14.9033 5.48389L14.4561 5.34424C13.4099 5.03843 12.3417 4.88525 11.25 4.88525H10.8223C10.6423 4.91179 10.489 4.92322 10.3564 4.92529C8.85749 5.06077 7.52739 5.44057 6.3584 6.05713L6.35449 6.05908C5.17649 6.66793 4.27242 7.4354 3.61621 8.36182C2.96616 9.27958 2.64551 10.2784 2.64551 11.3647C2.64557 12.3796 2.9292 13.3275 3.50391 14.2183C4.09041 15.1009 4.91818 15.862 6 16.4946H6.00098L17.6436 23.2427C18.9977 24.0181 20.0653 25.0097 20.8369 26.2192L20.9785 26.4468C21.6661 27.5914 22.0205 28.7955 22.0205 30.0522C22.0204 31.4538 21.6347 32.7419 20.877 33.9019L20.7207 34.1323C19.8613 35.3465 18.6868 36.334 17.209 37.1001L17.208 37.1011C15.7557 37.8487 14.1265 38.2867 12.3242 38.438C12.2554 38.461 12.1838 38.4765 12.1094 38.4839L12 38.4897H11.25C9.87553 38.4897 8.51389 38.272 7.16602 37.8413V37.8423C5.15653 37.2248 3.53396 36.2085 2.32812 34.7925V34.7935C1.11738 33.3781 0.500077 31.7964 0.5 30.0522C0.5 29.9127 0.535408 29.7162 0.693359 29.5581C0.851449 29.4 1.04793 29.3647 1.1875 29.3647H2.33301C2.45081 29.3647 2.56931 29.3923 2.67578 29.4517L2.77832 29.522L2.84766 29.5796L2.89258 29.6577C2.95362 29.7645 3.02043 29.9165 3.02051 30.0933V30.1343L3.01465 30.1743C2.90072 30.8722 2.92288 31.6217 3.09375 32.4272C3.2639 33.1703 3.67014 33.9094 4.3457 34.6489C5.00107 35.3554 6.0756 35.9877 7.62012 36.5161H7.61914C8.80204 36.9153 10.0134 37.1147 11.25 37.1147H11.6895C11.8711 37.0814 12.0363 37.0573 12.168 37.0532C13.6622 36.9329 14.9923 36.568 16.166 35.9614C17.3386 35.3423 18.248 34.5647 18.9043 33.6382C19.5536 32.7215 19.8749 31.7179 19.875 30.6147C19.875 29.6087 19.5839 28.6673 19 27.7866L18.9961 27.7817C18.4196 26.8882 17.5967 26.1172 16.5205 25.4849L4.87402 18.7349V18.7339C3.52494 17.9505 2.44848 16.9731 1.66602 15.7856L1.66504 15.7837C0.890264 14.5964 0.5 13.3144 0.5 11.9478C0.5 10.4442 0.932219 9.07203 1.7998 7.84619C2.60022 6.71324 3.67717 5.77498 5.0166 5.02686L5.28809 4.88037C6.77249 4.09473 8.43473 3.64055 10.2773 3.51123L10.2949 3.51025H11.25Z" fill="#6600FF" stroke="#6600FF"/>
<path d="M31.3184 29.8398C33.995 30.286 36.7121 30.5107 39.4668 30.5107C41.123 30.5107 42.7704 30.4351 44.416 30.2803L37.8008 8.4043L31.3184 29.8398ZM49.0508 37.8643L49.0088 37.9199V38.3018H48.9463V38.3438H47.3633C47.2234 38.3438 47.0671 38.3054 46.9316 38.1982C46.7985 38.0929 46.7275 37.9549 46.6934 37.832V37.8311L44.8174 31.6357C43.031 31.8302 41.2487 31.9268 39.4668 31.9268C36.5717 31.9267 33.7101 31.6761 30.8809 31.1816L28.8838 37.8418L28.874 37.8721L28.8613 37.9014C28.7828 38.0777 28.6162 38.2841 28.3418 38.333L28.2168 38.3438H28.0928L28.0332 38.3291C27.9078 38.2977 27.7255 38.2227 27.6045 38.0381C27.478 37.8447 27.4873 37.6377 27.5234 37.4932L27.5264 37.4814L27.5303 37.4697L29.7178 30.2402L37.1348 5.76172V5.75977L37.5918 4.26953V3.73926H37.6338V3.69824H37.6963V3.65625H38.8838V3.69824H38.9258V3.73926H38.9668V4.22754L49.0293 37.4697L49.0508 37.541V37.8643Z" fill="#6600FF" stroke="#6600FF"/>
<path d="M65.458 32.479C67.0272 32.479 68.4858 32.8578 69.8252 33.605L70.0908 33.7593L70.0928 33.7603C71.4142 34.5605 72.4545 35.6206 73.2109 36.936L73.3584 37.2026L73.375 37.2349L73.3877 37.269C73.4526 37.4506 73.4525 37.6324 73.3877 37.814L73.3711 37.8608L73.3457 37.9028C73.1931 38.1572 72.9285 38.2289 72.7295 38.229H71.7295C71.6208 38.229 71.4981 38.2058 71.3828 38.1372C71.2661 38.0678 71.1858 37.9698 71.1357 37.8696L71.1348 37.8657C70.5503 36.6724 69.7013 35.7279 68.5879 35.0278L68.5859 35.0269C67.5347 34.3596 66.4029 33.9935 65.1738 33.9263L64.9268 33.9165H56.833V37.5415C56.833 37.6811 56.7977 37.8776 56.6396 38.0356C56.4816 38.1937 56.2851 38.229 56.1455 38.229H55.1875C55.0479 38.229 54.8514 38.1937 54.6934 38.0356C54.5354 37.8776 54.5 37.681 54.5 37.5415V33.2085C54.5 33.0763 54.5258 32.8863 54.6592 32.7222C54.8083 32.5389 55.0151 32.479 55.1875 32.479H65.458ZM56.1455 3.771C56.33 3.771 56.5415 3.84028 56.6865 4.03369C56.8112 4.20002 56.833 4.38963 56.833 4.521V13.563H64.9375C66.2314 13.563 67.4033 13.2284 68.4609 12.5571C69.3919 11.9544 70.1627 11.1805 70.7715 10.2339L71.0225 9.81689C71.6546 8.67793 71.9795 7.39856 71.9795 5.979C71.9795 5.53972 71.9404 5.07761 71.8613 4.60303L71.8545 4.56201V4.521C71.8545 4.44397 71.8604 4.27718 71.9639 4.11963C72.0048 4.04143 72.0657 3.96017 72.1562 3.89404C72.2802 3.80361 72.4187 3.771 72.542 3.771H73.583C73.7307 3.771 73.9029 3.80992 74.0518 3.93311C74.1601 4.02283 74.2259 4.13212 74.2656 4.23584L74.2979 4.3374L74.3047 4.36475L74.3086 4.39307C74.3788 4.92742 74.417 5.45474 74.417 5.979C74.417 7.64732 74.0093 9.16912 73.2002 10.5269L73.1982 10.5298C72.3909 11.8643 71.3174 12.9383 69.9873 13.7407L69.9844 13.7427C68.77 14.4623 67.4232 14.8704 65.9492 14.9751C67.1871 15.7316 68.1963 16.7671 68.9717 18.0786L68.9756 18.0845L75.0166 28.605L75.0205 28.6118C75.5314 29.5349 76.2967 30.0247 77.3711 30.106H77.3701C77.5059 30.112 77.6826 30.153 77.8271 30.2974C77.9851 30.4553 78.0205 30.652 78.0205 30.7915C78.0205 30.9311 77.9852 31.1276 77.8271 31.2856C77.6691 31.4437 77.4726 31.479 77.333 31.479H77.3203C76.2448 31.4507 75.2541 31.1611 74.3467 30.6167L74.3428 30.6138C73.4361 30.0584 72.7143 29.3082 72.1885 28.3696V28.3687L66.1094 17.8755L66.1035 17.8657C65.6175 16.9795 64.9288 16.2811 64.0244 15.769V15.7681C63.1069 15.2568 62.1443 15.0005 61.125 15.0005H56.833V30.7915C56.833 30.9311 56.7977 31.1276 56.6396 31.2856C56.4816 31.4437 56.2851 31.479 56.1455 31.479H55.1875C55.0479 31.479 54.8514 31.4437 54.6934 31.2856C54.5354 31.1276 54.5 30.931 54.5 30.7915V4.521C54.5 4.38967 54.5219 4.19998 54.6465 4.03369C54.7915 3.84028 55.003 3.771 55.1875 3.771H56.1455Z" fill="#6600FF" stroke="#6600FF"/>
<path d="M87.3184 29.8398C89.995 30.286 92.7121 30.5107 95.4668 30.5107C97.123 30.5107 98.7704 30.4351 100.416 30.2803L93.8008 8.4043L87.3184 29.8398ZM105.051 37.8643L105.009 37.9199V38.3018H104.946V38.3438H103.363C103.223 38.3438 103.067 38.3054 102.932 38.1982C102.799 38.0929 102.728 37.9549 102.693 37.832V37.8311L100.817 31.6357C99.031 31.8302 97.2487 31.9268 95.4668 31.9268C92.5717 31.9267 89.7101 31.6761 86.8809 31.1816L84.8838 37.8418L84.874 37.8721L84.8613 37.9014C84.7828 38.0777 84.6162 38.2841 84.3418 38.333L84.2168 38.3438H84.0928L84.0332 38.3291C83.9078 38.2977 83.7255 38.2227 83.6045 38.0381C83.478 37.8447 83.4873 37.6377 83.5234 37.4932L83.5264 37.4814L83.5303 37.4697L85.7178 30.2402L93.1348 5.76172V5.75977L93.5918 4.26953V3.73926H93.6338V3.69824H93.6963V3.65625H94.8838V3.69824H94.9258V3.73926H94.9668V4.22754L105.029 37.4697L105.051 37.541V37.8643Z" fill="#6600FF" stroke="#6600FF"/>
<path d="M112.146 3.771C112.33 3.771 112.541 3.84028 112.687 4.03369C112.811 4.20002 112.833 4.38963 112.833 4.521V22.3579C115.619 23.3706 118.513 23.8755 121.521 23.8755C124.413 23.8755 127.22 23.4015 129.938 22.4575V4.521C129.938 4.38321 129.963 4.18382 130.104 4.01416C130.259 3.82607 130.473 3.77107 130.646 3.771H131.583C131.768 3.771 131.979 3.84028 132.124 4.03369C132.249 4.20002 132.271 4.38963 132.271 4.521V37.5415C132.271 37.6811 132.235 37.8776 132.077 38.0356C131.919 38.1937 131.723 38.229 131.583 38.229H130.646C130.512 38.229 130.316 38.2009 130.153 38.0532C129.98 37.8965 129.938 37.692 129.938 37.5415V23.9331C127.215 24.8497 124.408 25.2891 121.52 25.2505C118.556 25.2889 115.659 24.8254 112.833 23.855V37.5415C112.833 37.6811 112.798 37.8776 112.64 38.0356C112.482 38.1937 112.285 38.229 112.146 38.229H111.208C111.074 38.229 110.879 38.2009 110.716 38.0532C110.543 37.8965 110.5 37.692 110.5 37.5415V4.521C110.5 4.38321 110.526 4.18382 110.666 4.01416C110.822 3.82607 111.036 3.77107 111.208 3.771H112.146Z" fill="#6600FF" stroke="#6600FF"/>
<path d="M164.458 3.771C166.128 3.771 167.641 4.18423 168.99 5.01123C170.333 5.83348 171.407 6.9169 172.199 8.26318C173.009 9.61102 173.417 11.123 173.417 12.7915C173.417 14.7308 172.842 16.492 171.694 18.0474C170.941 19.0815 170.022 19.9034 168.943 20.5161C169.855 20.7152 170.719 21.0598 171.53 21.5513H171.529C172.889 22.3734 173.969 23.4524 174.762 24.7847L174.909 25.0386C175.621 26.319 175.979 27.7345 175.979 29.271C175.979 30.9151 175.571 32.425 174.765 33.7954L174.764 33.7944C173.97 35.1498 172.889 36.2325 171.524 37.0356H171.523C170.162 37.8326 168.657 38.229 167.021 38.229H154.208C154.074 38.229 153.879 38.2009 153.716 38.0532C153.543 37.8965 153.5 37.692 153.5 37.5415V4.521C153.5 4.38321 153.526 4.18382 153.666 4.01416C153.822 3.82607 154.036 3.77107 154.208 3.771H164.458ZM155.833 36.854H166.458C167.752 36.854 168.924 36.5202 169.981 35.8491L170.376 35.5806C171.272 34.9281 172 34.0994 172.562 33.0903C173.196 31.9499 173.521 30.6803 173.521 29.271C173.521 27.868 173.197 26.5985 172.563 25.4526C171.921 24.3051 171.063 23.4004 169.988 22.7388L169.986 22.7378C168.928 22.0804 167.754 21.7505 166.458 21.7505H155.833V36.854ZM155.833 20.313H163.938C165.247 20.313 166.422 19.9785 167.479 19.3091L167.868 19.0405C168.755 18.3883 169.481 17.5643 170.044 16.5669C170.677 15.4259 171 14.1667 171 12.7915C171 11.3713 170.675 10.1026 170.043 8.97412V8.97314C169.399 7.82382 168.545 6.91174 167.481 6.23389L167.479 6.23291C166.422 5.55192 165.245 5.2085 163.938 5.2085H155.833V20.313Z" fill="#6600FF" stroke="#6600FF"/>
<path d="M199.021 3.51025C200.652 3.51025 202.238 3.73476 203.777 4.17725H203.951L204.069 4.24854C204.064 4.2451 204.077 4.25258 204.134 4.27686C204.165 4.29013 204.201 4.30514 204.244 4.32275H204.372L204.448 4.34814C207.931 5.49484 210.787 7.54528 213.004 10.5015L213.028 10.5337L213.047 10.5688C213.1 10.6699 213.159 10.8299 213.127 11.0181C213.099 11.1848 213.008 11.3083 212.905 11.395L212.154 12.188L212.146 12.1968L190.249 34.0923C192.696 35.9795 195.476 36.9665 198.597 37.0522H199.499C201.84 37.0215 204.072 36.4774 206.192 35.4175L206.614 35.1978C208.697 34.0768 210.446 32.564 211.86 30.6606C211.91 30.5837 211.979 30.5111 212.07 30.4565C212.186 30.388 212.308 30.3647 212.417 30.3647L212.54 30.3774C212.574 30.3843 212.601 30.392 212.614 30.396C212.653 30.4075 212.695 30.4224 212.73 30.4351L212.858 30.481L212.945 30.5845C213.033 30.6883 213.108 30.8235 213.13 30.9878C213.152 31.1566 213.112 31.3126 213.041 31.4409L213.024 31.4702L213.005 31.4976C211.344 33.7161 209.277 35.4389 206.806 36.6665H206.805C204.345 37.8828 201.749 38.4897 199.021 38.4897H198.534L198.525 38.4888C196.175 38.4139 193.956 37.9325 191.884 37.0308L191.881 37.0298C189.823 36.1188 188.005 34.8588 186.435 33.2563L186.434 33.2554C184.873 31.6569 183.656 29.8008 182.788 27.7017L182.787 27.6987C181.928 25.5942 181.5 23.3525 181.5 20.9683C181.5 18.6045 181.928 16.3731 182.787 14.2788L182.788 14.2759C183.656 12.192 184.874 10.3472 186.434 8.74463L186.436 8.74268C188.005 7.14632 189.822 5.88194 191.877 4.95068L191.879 4.94971C193.955 4.01945 196.179 3.54239 198.535 3.51025H199.021ZM198.216 4.90283C196.303 5.01513 194.521 5.47253 192.863 6.27295L192.861 6.27393C191.198 7.06775 189.73 8.13584 188.455 9.47217L188.203 9.74268C186.882 11.1947 185.846 12.8861 185.091 14.8169C184.349 16.729 183.98 18.7763 183.979 20.9683V20.9771C183.939 23.3785 184.404 25.6659 185.374 27.8491C186.281 29.8901 187.54 31.6776 189.153 33.2114L210.814 11.5503C210.157 10.1935 209.264 9.01159 208.128 8.01025L208.126 8.00928C206.931 6.94748 205.579 6.17816 204.066 5.69775H203.938L203.843 5.65674C203.772 5.6259 203.723 5.60742 203.69 5.59717C203.685 5.59553 203.681 5.5942 203.678 5.59326H203.59L203.484 5.54053L203.446 5.52197C201.971 5.09922 200.5 4.88525 199.021 4.88525H198.601L198.216 4.90283Z" fill="#6600FF" stroke="#6600FF"/>
<path d="M220.146 3.771C220.33 3.771 220.541 3.84028 220.687 4.03369C220.811 4.20002 220.833 4.38963 220.833 4.521V27.4585C220.833 29.1239 221.228 30.6284 222.013 31.9731C222.814 33.3184 223.89 34.3946 225.235 35.1958C226.58 35.9801 228.085 36.3755 229.75 36.3755C231.181 36.3755 232.529 36.0498 233.789 35.3901H233.79C235.056 34.7324 236.091 33.8452 236.909 32.7261V32.7251C237.735 31.5997 238.275 30.2986 238.528 28.812L238.529 28.8032L238.531 28.7944C238.552 28.6951 238.562 28.6045 238.562 28.521V28.4155L238.569 28.3735C238.592 28.2449 238.604 28.1228 238.604 28.0005V4.521C238.604 4.36059 238.645 4.14849 238.813 3.97998C238.982 3.81161 239.194 3.771 239.354 3.771L239.496 3.78467C239.64 3.81316 239.786 3.88863 239.895 4.03369C240.019 4.20006 240.042 4.38958 240.042 4.521V28.0659L240.024 28.1294C239.996 28.2369 239.979 28.3646 239.979 28.521V28.5708L239.97 28.6187C239.94 28.7672 239.915 28.9121 239.889 29.064C239.627 30.8168 238.993 32.3878 237.988 33.77L237.99 33.771C236.997 35.1577 235.738 36.2508 234.21 37.0474L234.208 37.0493C232.677 37.8367 231.025 38.229 229.271 38.229C227.28 38.229 225.463 37.7494 223.829 36.7847L223.828 36.7837C222.215 35.8245 220.915 34.5309 219.945 32.9019L219.944 32.8999C218.98 31.2664 218.5 29.4487 218.5 27.4585V4.521C218.5 4.38967 218.522 4.19998 218.646 4.03369C218.792 3.84028 219.003 3.771 219.188 3.771H220.146Z" fill="#6600FF" stroke="#6600FF"/>
</g>
<defs>
<clipPath id="clip0_19930_9728">
<rect width="242" height="42" fill="white"/>
</clipPath>
</defs>
</svg>
